<?xml version="1.0" encoding="UTF-8" standalone="no"?>
<!-- Created with Inkscape (http://www.inkscape.org/) -->

<svg
   width="301.98236"
   height="301.98047"
   viewBox="0 0 79.899502 79.899001"
   version="1.1"
   id="svg1"
   xml:space="preserve"
   xmlns="http://www.w3.org/2000/svg"
   xmlns:svg="http://www.w3.org/2000/svg"><defs
     id="defs1" /><g
     id="layer18"
     style="display:inline"
     transform="translate(-107.30052,-7.15094)"><g
       id="layer31"
       style="display:inline"><path
         id="path136-4-4-2"
         style="fill:#84aaff;fill-opacity:1;stroke:none;stroke-width:3.29526;stroke-linecap:round;stroke-dasharray:none"
         d="m 147.25052,7.15094 a 39.94965,39.94965 0 0 0 -39.95,39.94949 39.94965,39.94965 0 0 0 39.95,39.949505 39.94965,39.94965 0 0 0 39.9495,-39.949505 39.94965,39.94965 0 0 0 -39.9495,-39.94949 z m 14.6849,15.81249 h 4.8948 v 4.5672 8.3783 1.4118 4.5677 h -4.8948 v -4.5672 h -9.5405 a 7.3425626,7.3553456 0 0 0 -0.2496,0 7.3425626,7.3553456 0 0 0 -0.2496,0 7.3425626,7.3553456 0 0 0 -7.0931,7.351 v 4.8973 a 2.4475217,2.4517826 0 0 1 -2.0164,2.4133 h -0.862 -5.2762 -1.6355 v -7.3127 a 17.111378,17.141169 0 0 1 9.7901,-15.4931 17.111378,17.141169 0 0 1 7.3215,-1.648 h 9.8113 z m -10.2211,19.2526 0.862,5e-4 h 5.2761 1.6356 v 7.3127 a 17.111378,17.141169 0 0 1 -9.7901,15.493105 17.111378,17.141169 0 0 1 -7.321,1.648 h -9.8118 v 4.5677 h -4.8948 v -4.5677 -8.378305 -1.4118 -4.5672 h 4.8948 v 4.5672 h 9.5405 a 7.3425626,7.3553456 0 0 0 0.2496,0 7.3425626,7.3553456 0 0 0 0.2501,0 7.3425626,7.3553456 0 0 0 7.0926,-7.351 v -4.8973 a 2.4475217,2.4517826 0 0 1 2.0164,-2.4138 z" /></g></g></svg>
