<?xml version="1.0" encoding="UTF-8" standalone="no"?>
<!-- Created with Inkscape (http://www.inkscape.org/) -->

<svg
   width="571.63519"
   height="160.57988"
   viewBox="0 0 151.24515 42.486761"
   version="1.1"
   id="svg1"
   xml:space="preserve"
   xmlns="http://www.w3.org/2000/svg"
   xmlns:svg="http://www.w3.org/2000/svg"><defs
     id="defs1" /><g
     id="layer6"
     style="display:inline"
     transform="translate(-880.29456,-1363.5558)"><g
       id="layer16"
       style="display:inline"><g
         id="g3"
         transform="translate(-55.989582,2009.781)"><path
           id="rect121-1-2-83"
           style="fill:#ffffff;stroke:#ffffff;stroke-width:7.05556;stroke-linecap:round;stroke-dasharray:none"
           d="m 974.3088,-642.6974 c -7.11372,0 -15.09061,17.2154 -15.09061,17.2154 10.0603,-4.8957 20.12064,-4.8957 30.181,0 0,0 -7.97666,-17.2154 -15.09039,-17.2154 z m -30.65751,18.2159 c 0,0 7.97689,17.2153 15.09062,17.2153 7.11372,0 15.09039,-17.2153 15.09039,-17.2153 -10.06031,4.8956 -20.12064,4.8956 -30.18101,0 z" /><path
           d="m 1012.3262,-617.17394 5.5811,-19.51648 h 6.2528 l -8.5955,25.08031 h -4.0825 z m -5.0815,-19.51648 5.5638,19.51648 0.8785,5.56383 h -4.1341 l -8.5439,-25.08031 z m 24.3913,6.44233 v 18.63798 h -5.3916 v -18.63798 z m -5.7189,-4.82313 q 0,-1.17134 0.8268,-1.91203 0.8269,-0.75792 2.1704,-0.75792 1.3436,0 2.1705,0.75792 0.844,0.74069 0.844,1.91203 0,1.1541 -0.844,1.91203 -0.8269,0.74069 -2.1705,0.74069 -1.3435,0 -2.1704,-0.74069 -0.8268,-0.75793 -0.8268,-1.91203 z m 9.5946,-2.99724 h 5.3744 v 22.0314 l -0.5513,4.42695 h -4.8231 z m 17.0016,16.93266 v 0.36173 q 0,2.11874 -0.4479,3.85851 -0.4306,1.73978 -1.3264,3.01446 -0.8957,1.25746 -2.2565,1.94648 -1.3608,0.68902 -3.2039,0.68902 -1.7054,0 -2.9284,-0.70624 -1.223,-0.72347 -2.0498,-1.99816 -0.8268,-1.27469 -1.3436,-2.98001 -0.4995,-1.70532 -0.7751,-3.66903 v -0.62012 q 0.2756,-1.9637 0.7751,-3.66902 0.5168,-1.70533 1.3436,-2.98001 0.8268,-1.27469 2.0326,-1.98094 1.223,-0.72347 2.9111,-0.72347 1.8604,0 3.2212,0.70625 1.378,0.70624 2.2737,1.98093 0.8958,1.25746 1.3264,2.99724 0.4479,1.72254 0.4479,3.77238 z m -5.3744,0.36173 v -0.36173 q 0,-1.06798 -0.155,-2.01539 -0.1378,-0.9474 -0.4996,-1.67087 -0.3445,-0.74069 -0.9818,-1.15411 -0.6201,-0.43063 -1.602,-0.43063 -0.9646,0 -1.6364,0.32728 -0.6718,0.32729 -1.0852,0.93018 -0.4134,0.58566 -0.6029,1.42971 -0.1895,0.84405 -0.2067,1.87758 v 1.8259 q 0.017,1.37804 0.3617,2.41157 0.3445,1.03353 1.1197,1.60197 0.7751,0.55122 2.0843,0.55122 0.999,0 1.6192,-0.37896 0.6373,-0.39619 0.9646,-1.10243 0.3445,-0.70625 0.4823,-1.6881 0.1378,-0.98185 0.1378,-2.15319 z m 13.6081,-5.13319 v 14.29715 h -5.3743 v -18.63798 h 5.0471 z m 5.5639,-4.47863 -0.086,5.01262 q -0.3445,-0.0517 -0.8957,-0.0861 -0.5512,-0.0517 -0.9474,-0.0517 -1.0335,0 -1.7914,0.25839 -0.7407,0.24115 -1.2403,0.72347 -0.4823,0.48231 -0.7234,1.20578 -0.2412,0.70625 -0.2412,1.63642 l -1.0163,-0.49954 q 0,-1.84313 0.3617,-3.37619 0.3618,-1.53307 1.0508,-2.65273 0.689,-1.13688 1.6881,-1.757 0.9991,-0.62012 2.2738,-0.62012 0.4134,0 0.844,0.0517 0.4306,0.0517 0.7235,0.15503 z m 11.5066,14.33161 v -7.99263 q 0,-0.84405 -0.2584,-1.44694 -0.2584,-0.60289 -0.8096,-0.9474 -0.5512,-0.34451 -1.4297,-0.34451 -0.7407,0 -1.2919,0.25838 -0.534,0.25838 -0.8268,0.7407 -0.2756,0.48231 -0.2756,1.18855 h -5.3744 q 0,-1.25746 0.5685,-2.34266 0.5684,-1.08521 1.6191,-1.91203 1.068,-0.82683 2.5494,-1.27469 1.4814,-0.46509 3.3245,-0.46509 2.1877,0 3.893,0.7407 1.7225,0.72347 2.7216,2.18764 0.9991,1.44694 0.9991,3.6518 v 7.80315 q 0,1.68809 0.1895,2.65272 0.2067,0.9474 0.5857,1.65365 v 0.29283 h -5.4261 q -0.3789,-0.8096 -0.5684,-1.99815 -0.1895,-1.20579 -0.1895,-2.44602 z m 0.6718,-6.92465 0.034,2.96278 h -2.6699 q -0.8957,0 -1.5503,0.22394 -0.6373,0.22393 -1.0335,0.62011 -0.3962,0.37896 -0.5857,0.89573 -0.1722,0.49954 -0.1722,1.10243 0,0.56844 0.2756,1.03353 0.2756,0.44786 0.7579,0.70624 0.4823,0.25839 1.1196,0.25839 1.0508,0 1.7915,-0.41342 0.7579,-0.41341 1.1713,-0.99907 0.4134,-0.6029 0.4134,-1.11966 l 1.2919,2.23931 q -0.31,0.68902 -0.7579,1.42972 -0.4478,0.72347 -1.1369,1.36081 -0.689,0.62012 -1.6708,1.01631 -0.9647,0.39618 -2.3255,0.39618 -1.757,0 -3.1867,-0.70624 -1.4297,-0.72347 -2.291,-1.98093 -0.844,-1.25746 -0.844,-2.89389 0,-1.46416 0.534,-2.60104 0.534,-1.13689 1.6019,-1.92926 1.0852,-0.79237 2.7217,-1.18856 1.6364,-0.41341 3.824,-0.41341 z"
           id="text135-2-7-4-7"
           style="font-weight:800;font-size:35.2778px;font-family:Roboto;-inkscape-font-specification:Roboto;fill:#ffffff;stroke:#ffffff;stroke-width:7.05556;stroke-linecap:round;stroke-linejoin:round"
           aria-label="Vibra" /><path
           id="rect121-1-2-6"
           style="fill:#0051a2;fill-opacity:1;stroke:none;stroke-width:0.462186;stroke-linecap:round"
           d="m 974.30878,-642.69746 c -7.11372,0 -15.09061,17.21535 -15.09061,17.21535 10.0603,-4.89567 20.12064,-4.89567 30.181,0 0,0 -7.97666,-17.21536 -15.09039,-17.21535 z m -30.65751,18.21584 c 0,0 7.97689,17.21538 15.09062,17.21535 7.11372,-1e-5 15.09039,-17.21535 15.09039,-17.21535 -10.06031,4.89567 -20.12064,4.89567 -30.18101,0 z" /><g
           id="text135-2-7-4-5"
           style="font-weight:800;font-size:35.2778px;font-family:Roboto;-inkscape-font-specification:Roboto;stroke-width:52.8878;stroke-linecap:round"
           aria-label="Vibra"><path
             style="fill:#0051a2;stroke-width:52.8879"
             d="m 1012.3262,-617.17394 5.5811,-19.51648 h 6.2528 l -8.5955,25.08031 h -4.0825 z m -5.0815,-19.51648 5.5638,19.51648 0.8785,5.56383 h -4.1341 l -8.5439,-25.08031 z"
             id="path37" /><path
             style="stroke-width:52.8879"
             d="m 1031.636,-630.24809 v 18.63798 h -5.3916 v -18.63798 z m -5.7189,-4.82313 q 0,-1.17134 0.8268,-1.91203 0.8269,-0.75792 2.1704,-0.75792 1.3436,0 2.1705,0.75792 0.844,0.74069 0.844,1.91203 0,1.1541 -0.844,1.91203 -0.8269,0.74069 -2.1705,0.74069 -1.3435,0 -2.1704,-0.74069 -0.8268,-0.75793 -0.8268,-1.91203 z m 9.5946,-2.99724 h 5.3744 v 22.0314 l -0.5513,4.42695 h -4.8231 z m 17.0016,16.93266 v 0.36173 q 0,2.11874 -0.4479,3.85851 -0.4306,1.73978 -1.3264,3.01446 -0.8957,1.25746 -2.2565,1.94648 -1.3608,0.68902 -3.2039,0.68902 -1.7054,0 -2.9284,-0.70624 -1.223,-0.72347 -2.0498,-1.99816 -0.8268,-1.27469 -1.3436,-2.98001 -0.4995,-1.70532 -0.7751,-3.66903 v -0.62012 q 0.2756,-1.9637 0.7751,-3.66902 0.5168,-1.70533 1.3436,-2.98001 0.8268,-1.27469 2.0326,-1.98094 1.223,-0.72347 2.9111,-0.72347 1.8604,0 3.2212,0.70625 1.378,0.70624 2.2737,1.98093 0.8958,1.25746 1.3264,2.99724 0.4479,1.72254 0.4479,3.77238 z m -5.3744,0.36173 v -0.36173 q 0,-1.06798 -0.155,-2.01539 -0.1378,-0.9474 -0.4996,-1.67087 -0.3445,-0.74069 -0.9818,-1.15411 -0.6201,-0.43063 -1.602,-0.43063 -0.9646,0 -1.6364,0.32728 -0.6718,0.32729 -1.0852,0.93018 -0.4134,0.58566 -0.6029,1.42971 -0.1895,0.84405 -0.2067,1.87758 v 1.8259 q 0.017,1.37804 0.3617,2.41157 0.3445,1.03353 1.1197,1.60197 0.7751,0.55122 2.0843,0.55122 0.999,0 1.6192,-0.37896 0.6373,-0.39619 0.9646,-1.10243 0.3445,-0.70625 0.4823,-1.6881 0.1378,-0.98185 0.1378,-2.15319 z m 13.6081,-5.13319 v 14.29715 h -5.3743 v -18.63798 h 5.0471 z m 5.5639,-4.47863 -0.086,5.01262 q -0.3445,-0.0517 -0.8957,-0.0861 -0.5512,-0.0517 -0.9474,-0.0517 -1.0335,0 -1.7914,0.25839 -0.7407,0.24115 -1.2403,0.72347 -0.4823,0.48231 -0.7234,1.20578 -0.2412,0.70625 -0.2412,1.63642 l -1.0163,-0.49954 q 0,-1.84313 0.3617,-3.37619 0.3618,-1.53307 1.0508,-2.65273 0.689,-1.13688 1.6881,-1.757 0.9991,-0.62012 2.2738,-0.62012 0.4134,0 0.844,0.0517 0.4306,0.0517 0.7235,0.15503 z m 11.5066,14.33161 v -7.99263 q 0,-0.84405 -0.2584,-1.44694 -0.2584,-0.60289 -0.8096,-0.9474 -0.5512,-0.34451 -1.4297,-0.34451 -0.7407,0 -1.2919,0.25838 -0.534,0.25838 -0.8268,0.7407 -0.2756,0.48231 -0.2756,1.18855 h -5.3744 q 0,-1.25746 0.5685,-2.34266 0.5684,-1.08521 1.6191,-1.91203 1.068,-0.82683 2.5494,-1.27469 1.4814,-0.46509 3.3245,-0.46509 2.1877,0 3.893,0.7407 1.7225,0.72347 2.7216,2.18764 0.9991,1.44694 0.9991,3.6518 v 7.80315 q 0,1.68809 0.1895,2.65272 0.2067,0.9474 0.5857,1.65365 v 0.29283 h -5.4261 q -0.3789,-0.8096 -0.5684,-1.99815 -0.1895,-1.20579 -0.1895,-2.44602 z m 0.6718,-6.92465 0.034,2.96278 h -2.6699 q -0.8957,0 -1.5503,0.22394 -0.6373,0.22393 -1.0335,0.62011 -0.3962,0.37896 -0.5857,0.89573 -0.1722,0.49954 -0.1722,1.10243 0,0.56844 0.2756,1.03353 0.2756,0.44786 0.7579,0.70624 0.4823,0.25839 1.1196,0.25839 1.0508,0 1.7915,-0.41342 0.7579,-0.41341 1.1713,-0.99907 0.4134,-0.6029 0.4134,-1.11966 l 1.2919,2.23931 q -0.31,0.68902 -0.7579,1.42972 -0.4478,0.72347 -1.1369,1.36081 -0.689,0.62012 -1.6708,1.01631 -0.9647,0.39618 -2.3255,0.39618 -1.757,0 -3.1867,-0.70624 -1.4297,-0.72347 -2.291,-1.98093 -0.844,-1.25746 -0.844,-2.89389 0,-1.46416 0.534,-2.60104 0.534,-1.13689 1.6019,-1.92926 1.0852,-0.79237 2.7217,-1.18856 1.6364,-0.41341 3.824,-0.41341 z"
             id="path38" /></g></g></g></g></svg>
